<?xml version="1.0" ?><svg xmlns="http://www.w3.org/2000/svg" xmlns:xlink="http://www.w3.org/1999/xlink" version="1.1" viewBox="0 0 512 512" style="enable-background:new 0 0 512 512;" xml:space="preserve"><g id="_x33_7_x2C__toolbox_x2C__build_x2C__toolkit_x2C__construction_and_tools_x2C__Tools_and_utensils_x2C__repair_tool"><g><g><path style="fill:#3A98FF;" d="M126,151h15v100c0,5.522,4.478,10,10,10s10-4.478,10-10V151h20v100c0,5.522,4.478,10,10,10     s10-4.478,10-10V151h6.973l27.48,18.32c3.282,2.19,7.543,2.241,10.879,0.14c3.336-2.103,5.125-5.97,4.567-9.874l-3.732-26.129     C242.895,103.552,216.892,81,186.684,81H126c-13.785,0-25,11.215-25,25v20C101,139.785,112.215,151,126,151z M121,106     c0-2.757,2.243-5,5-5h60.684c20.319,0,37.811,15.17,40.685,35.285l0.569,3.988l-11.391-7.594c-1.643-1.096-3.572-1.68-5.547-1.68     h-20h-40h-25c-2.757,0-5-2.243-5-5V106z"/><path style="fill:#3A98FF;" d="M306,208.072V251c0,5.522,4.478,10,10,10s10-4.478,10-10v-35.077     c3.789,0.84,7.681,1.386,11.661,1.572c6.315,0.294,12.462-0.254,18.339-1.536V251c0,5.522,4.478,10,10,10s10-4.478,10-10v-42.794     c20.883-12.063,35-34.604,35-60.634c0-29.608-18.754-56.132-46.667-66C357.822,79.269,351,84.114,351,91v36.572     c0,5.514-4.486,10-10,10s-10-4.486-10-10V91c0-6.906-6.841-11.724-13.333-9.428c-29.181,10.316-47.909,38.053-46.604,69.018     C272.092,174.972,285.962,196.356,306,208.072z M311,107.528v20.044c0,16.542,13.458,30,30,30s30-13.458,30-30v-19.995     c14.541,10.932,21.388,28.206,19.766,44.952c-2.533,26.149-25.25,46.274-52.173,44.987     c-25.583-1.192-46.468-22.175-47.547-47.768C290.331,132.803,298.007,117.212,311,107.528z"/><path style="fill:#3A98FF;" d="M421,381H91c-22.056,0-40,17.944-40,40s17.944,40,40,40h330c22.056,0,40-17.944,40-40     S443.056,381,421,381z M421,441H91c-11.028,0-20-8.972-20-20s8.972-20,20-20h330c11.028,0,20,8.972,20,20S432.028,441,421,441z"/></g><g><path style="fill:#283954;" d="M491,246.382V61c0-33.084-26.916-60-60-60H81C47.916,1,21,27.916,21,61v185.382     C9.056,253.309,1,266.228,1,281v190c0,22.056,17.944,40,40,40h430c22.056,0,40-17.944,40-40V281     C511,266.228,502.944,253.309,491,246.382z M41,61c0-22.056,17.944-40,40-40h350c22.056,0,40,17.944,40,40v180h-20V51     c0-5.522-4.478-10-10-10H71c-5.522,0-10,4.478-10,10v190H41V61z M81,241V61h350v180H81z M491,471c0,11.028-8.972,20-20,20H41     c-11.028,0-20-8.972-20-20V281c0-11.028,8.972-20,20-20h430c11.028,0,20,8.972,20,20V471z"/><path style="fill:#283954;" d="M301,291h-90c-16.542,0-30,13.458-30,30s13.458,30,30,30h90c16.542,0,30-13.458,30-30     S317.542,291,301,291z M301,331h-90c-5.514,0-10-4.486-10-10s4.486-10,10-10h90c5.514,0,10,4.486,10,10S306.514,331,301,331z"/><path style="fill:#283954;" d="M401,291c-16.542,0-30,13.458-30,30s13.458,30,30,30s30-13.458,30-30S417.542,291,401,291z      M401,331c-5.514,0-10-4.486-10-10s4.486-10,10-10s10,4.486,10,10S406.514,331,401,331z"/><path style="fill:#283954;" d="M111,291c-16.542,0-30,13.458-30,30s13.458,30,30,30s30-13.458,30-30S127.542,291,111,291z      M111,331c-5.514,0-10-4.486-10-10s4.486-10,10-10s10,4.486,10,10S116.514,331,111,331z"/></g></g></g><g id="Layer_1"/></svg>